# xmcd
#
# Track frame offsets: 
#        182
#        9907
#        25737
#        38917
#        58837
#        83885
#        110555
#        121732
#        133105
#        151952
#        170165
#        185242
#        195440
#        213492
#        239497
#        251545
#        267307
#        278465
#        296397
#        310837
#        321320
#        332652
#
# Disc length: 4677 seconds
#
# Revision: 2
# Processed by: cddbd v1.5.2PL0 Copyright (c) Steve Scherf et al.
# Submitted via: ExactAudioCopy v0.95b4
#
DISCID=3e124316
DTITLE=Ray Charles - Ingredients In A Recipe For Soul and Have A Smile W
DTITLE=ith Me
DYEAR=1997
DGENRE=Blues
TTITLE0=Busted
TTITLE1=Where Can I Go?
TTITLE2=Born To Be Blue
TTITLE3=That Lucky Old Sun
TTITLE4=Ol' Man River
TTITLE5=In The Evening (When The Sun Goes Down)
TTITLE6=A Stranger In Town
TTITLE7=Ol' Man Time
TTITLE8=Over The Rainbow
TTITLE9=You'll Never Walk Alone
TTITLE10=Smack Dab In The Middle
TTITLE11=Feudin' And Fightin'
TTITLE12=Two Ton Tessie
TTITLE13=I Never See Maggie Alone
TTITLE14=Move It On Over
TTITLE15=Ma (She's Making Eyes At Me)
TTITLE16=The Thing
TTITLE17=The Man With The Weird Beard
TTITLE18=The Naughty Lady Of Shady Lane
TTITLE19=Who Cares (For Me)
TTITLE20=Without A Song (Part 1)
TTITLE21=Without A Song (Part 2)
EXTD=
EXTT0=
EXTT1=
EXTT2=
EXTT3=
EXTT4=
EXTT5=
EXTT6=
EXTT7=
EXTT8=
EXTT9=
EXTT10=
EXTT11=
EXTT12=
EXTT13=
EXTT14=
EXTT15=
EXTT16=
EXTT17=
EXTT18=
EXTT19=
EXTT20=
EXTT21=
PLAYORDER=
